<?xml version="1.0" encoding="UTF-8"?>
<!-- Generated by Pixelmator Pro 3.1.1 -->
<svg width="5000" height="815" viewBox="0 0 5000 815" xmlns="http://www.w3.org/2000/svg" xmlns:xlink="http://www.w3.org/1999/xlink">
    <path id="JAZZZNY" fill="#ffffff" fill-rule="evenodd" stroke="none" d="M 4597.703613 223.026794 L 4770.976563 2.392395 L 5002.007324 2.392395 L 4713.21875 369.731293 Z M 4467.171387 424.601074 L 4135.64209 2.392395 L 4366.672852 2.392395 L 4684.340332 406.696198 L 4669.900879 425.17865 L 4669.900879 811 L 4467.749023 811 Z M 4077.884521 811 L 3529.186523 388.791321 L 3327.034424 233.423157 L 3327.034424 2.392395 L 3875.732666 424.601074 L 3875.732666 2.392395 L 4078.461914 2.392395 Z M 3529.186523 446.549011 L 3529.186523 811 L 3327.034424 811 L 3327.034424 291.180847 Z M 2893.274414 811 L 2893.274414 811.577576 L 2662.243652 811 L 2661.666016 811 L 2663.398682 808.112122 L 2933.127197 204.544312 L 2661.666016 204.544312 L 2661.666016 2.392395 L 3239.820313 2.392395 Z M 3037.668457 608.848083 L 3239.820313 608.848083 L 3239.820313 811 L 2951.031982 811 Z M 2228.483398 811 L 2228.483398 811.577576 L 1997.452637 811 L 1996.875 811 L 1998.607788 808.112122 L 2268.336182 204.544312 L 1996.875 204.544312 L 1996.875 2.392395 L 2575.029541 2.392395 Z M 2372.877686 608.848083 L 2575.029541 608.848083 L 2575.029541 811 L 2286.240967 811 Z M 1563.692383 811 L 1563.692383 811.577576 L 1332.661621 811 L 1332.084106 811 L 1333.816772 808.112122 L 1603.545166 204.544312 L 1332.084106 204.544312 L 1332.084106 2.392395 L 1910.238525 2.392395 Z M 1708.08667 608.848083 L 1910.238525 608.848083 L 1910.238525 811 L 1621.450073 811 Z M 812.842529 487.556976 L 639.569458 811 L 408.538696 811 L 697.327148 272.120789 Z M 897.168701 536.651001 L 726.205994 217.828552 L 841.721313 2.392395 L 1274.903931 811 L 1043.873291 811 L 1005.175598 738.802917 L 736.02478 738.802917 L 844.031677 536.651001 Z M 61.992592 608.848083 C 83.555573 608.463013 102.615417 598.644348 119.172699 579.391663 C 138.81041 559.753967 148.62912 535.881042 148.62912 507.772156 L 148.62912 2.392395 L 350.781006 2.392395 L 350.781006 507.772156 C 350.781006 591.713745 321.132385 663.140015 261.834198 722.053162 C 209.466949 774.42041 142.85376 804.069031 61.992592 811 L 4.234908 811 L 4.234908 608.848083 Z"/>
</svg>
